<?xml version="1.0" standalone="no"?>
<!DOCTYPE svg PUBLIC "-//W3C//DTD SVG 20010904//EN"
 "http://www.w3.org/TR/2001/REC-SVG-20010904/DTD/svg10.dtd">
<svg version="1.0" xmlns="http://www.w3.org/2000/svg"
 width="720.000000pt" height="720.000000pt" viewBox="0 0 720.000000 720.000000"
 preserveAspectRatio="xMidYMid meet">
<metadata>
Created by potrace 1.14, written by Peter Selinger 2001-2017
</metadata>
<g transform="translate(0.000000,720.000000) scale(0.100000,-0.100000)"
fill="#000000" stroke="none">
<path d="M3368 7194 c-2 -2 -33 -6 -69 -9 -35 -3 -80 -7 -99 -10 -19 -2 -53
-7 -75 -9 -39 -4 -95 -13 -139 -22 -11 -2 -37 -7 -56 -10 -43 -8 -51 -10 -122
-27 -32 -8 -58 -12 -58 -9 0 3 -5 1 -12 -6 -7 -7 -20 -12 -30 -12 -9 0 -37 -6
-60 -14 -24 -7 -70 -21 -103 -31 -33 -10 -64 -20 -70 -24 -5 -3 -12 -6 -15 -6
-13 -2 -120 -40 -155 -56 -40 -18 -111 -47 -120 -49 -2 -1 -36 -17 -75 -36
-38 -18 -73 -34 -78 -35 -4 -1 -23 -12 -42 -23 -19 -12 -53 -30 -75 -41 -22
-11 -42 -23 -45 -26 -3 -3 -32 -21 -65 -39 -33 -19 -61 -37 -63 -42 -2 -4 -8
-8 -13 -8 -6 0 -37 -19 -71 -42 -33 -24 -68 -47 -77 -53 -37 -22 -223 -168
-271 -212 -14 -12 -41 -36 -60 -54 -122 -108 -279 -273 -375 -395 -16 -20 -35
-42 -41 -48 -40 -41 -254 -357 -254 -376 0 -5 -4 -10 -9 -10 -5 0 -12 -8 -15
-18 -3 -9 -26 -53 -51 -96 -25 -44 -45 -85 -45 -93 0 -7 -4 -13 -10 -13 -5 0
-10 -4 -10 -9 0 -5 -18 -48 -41 -97 -36 -77 -59 -128 -64 -144 -1 -3 -7 -18
-14 -35 -42 -106 -125 -348 -136 -400 -2 -11 -6 -30 -9 -42 -4 -13 -8 -32 -11
-44 -2 -11 -6 -28 -9 -37 -3 -9 -8 -35 -12 -57 -3 -22 -7 -42 -9 -45 -5 -8
-32 -171 -40 -235 -4 -27 -8 -61 -11 -75 -19 -112 -26 -556 -11 -720 15 -168
17 -187 37 -300 30 -166 32 -178 64 -301 14 -52 29 -109 35 -127 5 -18 10 -33
10 -35 0 -1 2 -9 5 -17 3 -8 16 -50 30 -92 42 -128 95 -256 168 -408 70 -148
185 -352 200 -358 4 -2 8 -8 8 -14 0 -12 106 -166 177 -258 52 -67 158 -194
185 -223 18 -19 56 -59 84 -88 143 -151 323 -305 504 -432 52 -37 100 -71 105
-75 26 -21 134 -82 144 -82 6 0 11 -3 11 -7 0 -5 10 -13 23 -19 12 -7 83 -43
157 -81 114 -58 225 -109 315 -143 11 -4 31 -12 45 -18 28 -12 202 -71 228
-77 9 -3 33 -9 52 -14 64 -18 155 -41 185 -47 17 -3 59 -11 95 -19 36 -8 83
-17 105 -20 22 -3 54 -7 70 -10 151 -23 257 -29 480 -29 197 -1 408 9 424 18
3 2 33 7 66 10 33 4 71 9 85 11 56 11 76 15 114 21 22 3 44 8 48 11 5 2 21 7
36 9 40 7 225 54 242 61 18 8 14 6 70 22 25 7 50 16 55 19 6 4 17 7 25 9 9 1
34 10 55 19 22 10 45 19 50 20 17 4 131 52 202 86 37 17 74 33 81 34 7 1 19 7
27 14 7 6 37 23 67 38 50 26 160 88 202 115 249 155 422 292 641 506 81 80
174 181 216 236 13 17 29 35 35 40 20 17 184 243 184 253 0 6 4 12 9 14 11 4
111 162 111 175 0 6 6 16 14 22 16 13 152 278 191 371 15 36 32 76 38 90 6 14
11 27 12 30 1 3 6 16 12 31 13 30 75 214 96 284 13 43 19 65 33 120 17 68 46
197 50 224 3 20 7 43 10 51 6 17 17 102 18 142 1 16 3 28 6 28 3 0 5 10 6 23
0 12 4 56 9 97 17 157 9 692 -12 784 -2 12 -6 37 -8 56 -23 199 -126 612 -192
770 -3 8 -7 17 -8 20 -5 16 -20 51 -41 98 -12 28 -21 52 -19 52 6 0 -166 344
-175 350 -3 3 -20 30 -36 60 -50 95 -218 338 -311 450 -115 140 -281 310 -413
425 -30 27 -56 52 -58 57 -2 4 -10 8 -18 8 -8 0 -14 4 -14 8 0 26 -390 291
-550 373 -47 24 -86 47 -88 52 -2 4 -8 7 -12 7 -5 0 -48 18 -97 41 -48 22 -97
44 -108 49 -42 20 -201 82 -216 85 -9 2 -39 11 -65 20 -27 9 -56 18 -64 20 -8
2 -15 4 -15 5 0 1 -7 3 -15 5 -8 3 -58 16 -110 30 -102 27 -107 28 -190 45
-76 15 -111 21 -140 25 -14 2 -38 6 -55 9 -35 6 -111 16 -175 22 -57 6 -557
13 -562 8z"/>
</g>
</svg>
