<svg width="30" height="30" viewBox="0 0 30 30" fill="none" xmlns="http://www.w3.org/2000/svg">
    <g clip-path="url(#clip0_753_20460)">
        <rect x="-3" y="-3" width="35.625" height="35.625" rx="5.9375" fill="#43B7FF"/>
        <path d="M9.63882 19.5122C8.83209 19.6712 8.27332 20.4391 8.34711 21.2872C8.4209 22.1354 9.10316 22.7871 9.92431 22.7938H21.1754C21.6242 22.8047 22.0553 22.6122 22.356 22.2665C22.6137 21.9575 22.7537 21.5615 22.7498 21.153C22.7884 20.3458 22.2341 19.6383 21.4644 19.5122L9.63882 19.5122Z"
              fill="white"/>
        <path d="M21.3161 17.8941C21.4834 17.8945 21.6279 17.7725 21.6613 17.6024L22.5052 13.1467C23.2629 13.1009 23.8834 12.5051 23.9855 11.725C24.0876 10.945 23.6428 10.1992 22.9242 9.94553C22.2056 9.69188 21.4144 10.0014 21.0364 10.6841C20.6585 11.3667 20.7995 12.2314 21.373 12.7471L19.6678 14.7649C19.602 14.8428 19.5074 14.888 19.4076 14.8892C19.3078 14.8905 19.2122 14.8477 19.1446 14.7715L16.2904 11.5417C17.1425 11.1754 17.6265 10.2359 17.4465 9.29765C17.2664 8.35942 16.4724 7.68372 15.5499 7.68372C14.6274 7.68372 13.8334 8.35942 13.6533 9.29765C13.4733 10.2359 13.9573 11.1754 14.8094 11.5417L11.9636 14.7613C11.8956 14.8382 11.7991 14.8812 11.6985 14.8794C11.5981 14.8777 11.5031 14.8315 11.4376 14.7525L9.75421 12.7223C10.3125 12.1944 10.4319 11.3303 10.039 10.6611C9.64606 9.99189 8.85099 9.70519 8.14247 9.97724C7.43395 10.2493 7.01062 11.0038 7.13269 11.777C7.25475 12.5503 7.88799 13.1254 8.64317 13.1489L9.45254 17.5973C9.48396 17.7694 9.62892 17.894 9.79781 17.8941H21.3161Z"
              fill="white"/>
    </g>
    <defs>
        <clipPath id="clip0_753_20460">
            <rect width="30" height="30" rx="5" fill="white"/>
        </clipPath>
    </defs>
</svg>
