<svg width="22" height="23" viewBox="0 0 22 23" fill="none" xmlns="http://www.w3.org/2000/svg">
    <path d="M21.6582 11.3809L20.7305 10.4043C20.4863 10.1602 20.0957 10.1602 19.9004 10.4043L12.332 17.9727L12.332 1.27344C12.332 0.980469 12.0391 0.6875 11.7461 0.6875L10.3789 0.687499C10.0371 0.687499 9.79298 0.980468 9.79298 1.27344L9.79297 17.9727L2.17579 10.4043C1.98047 10.1602 1.58985 10.1602 1.34571 10.4043L0.417974 11.3809C0.173834 11.5762 0.173834 11.9668 0.417974 12.2109L10.6231 22.416C10.8672 22.6602 11.209 22.6602 11.4531 22.416L21.6582 12.2109C21.9023 11.9668 21.9023 11.5762 21.6582 11.3809Z" fill="#EB4791"/>
</svg>
