<svg width="174" height="112" viewBox="0 0 174 112" fill="none" xmlns="http://www.w3.org/2000/svg">
    <path d="M26.0382 109.694C24.9492 109.694 23.9297 109.283 23.1696 108.533C22.3994 107.775 21.9928 106.716 22.05 105.632C22.1052 104.587 22.5792 103.655 23.3862 103.006C24.7612 101.895 26.1649 100.83 27.5522 99.8372C38.7792 91.8177 64.1691 80.0857 78.8593 77.5427C84.4922 76.5675 90.1762 76.0721 95.7519 76.0721C97.3986 76.0721 99.0576 76.1167 100.686 76.2022C105.573 76.4606 110.387 77.2493 115.043 78.0128C118.096 78.5121 121.254 79.0308 124.356 79.3805C126.654 79.6408 128.716 79.7671 130.659 79.7671C135.499 79.7671 139.557 78.9667 143.063 77.3193C145.653 76.1031 147.684 74.6053 149.102 72.8666C150.73 70.8676 151.681 68.4314 151.93 65.6242C152.195 62.6169 151.862 59.6018 151.507 56.4099C151.098 52.7149 150.673 48.8956 151.233 44.9946C151.748 41.4161 153.143 37.8804 155.501 34.1854C156.292 32.9479 157.138 31.7454 157.957 30.5817C159.224 28.7827 160.419 27.0848 161.42 25.2723C163.253 21.958 163.929 19.0925 163.431 16.7574C162.989 14.6923 161.555 12.872 159.498 11.7607C158.439 11.1896 157.271 10.9001 156.026 10.9001C152.778 10.9001 149.766 12.8778 148.706 15.7064C148.121 17.2644 146.62 18.2708 144.879 18.2708C143.502 18.2708 142.229 17.6607 141.473 16.6408C140.76 15.6772 140.601 14.4592 141.038 13.2935C141.716 11.481 142.746 9.8161 144.094 8.34547C146.699 5.50524 150.491 3.64607 154.5 3.24393C154.986 3.19536 155.485 3.1701 155.979 3.1701C159.379 3.1701 162.783 4.32213 165.566 6.41637C168.908 8.93217 171.023 12.4543 171.519 16.3339C172.01 20.1727 171.062 24.2349 168.618 28.7516C167.47 30.875 166.091 32.8352 164.757 34.7313C163.9 35.9474 163.093 37.0936 162.337 38.2884C160.354 41.4181 159.33 44.2136 159.118 47.0869C158.899 50.0379 159.214 52.985 159.547 56.1069C159.984 60.1982 160.435 64.4275 159.614 68.752C158.325 75.532 153.395 81.2552 146.088 84.451C141.504 86.4578 136.429 87.433 130.575 87.433C128.213 87.433 125.761 87.2756 123.081 86.9532C120.079 86.5918 117.076 86.1061 114.173 85.636C109.22 84.8356 104.098 84.008 99.0352 83.8176C97.9339 83.7768 96.8143 83.7555 95.711 83.7555C89.8084 83.7555 83.869 84.348 78.0563 85.5194C64.5165 88.2451 39.6434 99.9576 28.7699 108.729C27.9976 109.353 27.0271 109.696 26.0382 109.696V109.694Z" fill="white"/>
    <path d="M155.977 5.41194C158.911 5.41194 161.8 6.44351 164.101 8.17446C166.886 10.2687 168.747 13.2391 169.178 16.6058C169.677 20.497 168.373 24.3028 166.52 27.7297C164.736 31.0265 162.325 33.9639 160.317 37.1324C158.39 40.1728 157.027 43.3627 156.764 46.9314C156.235 54.0981 158.652 61.2064 157.291 68.3536C156.069 74.7821 151.223 79.736 145.1 82.4169C140.47 84.4431 135.552 85.193 130.571 85.193C128.176 85.193 125.77 85.0201 123.373 84.7307C115.26 83.7515 107.324 81.8865 99.1252 81.5776C97.9851 81.5349 96.845 81.5135 95.707 81.5135C89.6144 81.5135 83.53 82.1235 77.5661 83.3241C63.397 86.178 38.3012 98.0984 27.2438 107.017C26.8944 107.299 26.4633 107.453 26.0363 107.453C25.6092 107.453 25.1945 107.303 24.8655 106.977C24.2628 106.382 24.2158 105.273 24.9085 104.713C26.2304 103.647 27.5809 102.617 28.9661 101.628C40.3218 93.5175 65.3073 82.1643 79.2823 79.7457C84.7088 78.8054 90.2314 78.312 95.7499 78.312C97.3517 78.312 98.9556 78.3528 100.555 78.4382C108.497 78.8579 116.202 80.7112 124.078 81.6048C126.258 81.8516 128.462 82.007 130.659 82.007C135.287 82.007 139.875 81.3154 144.107 79.328C146.714 78.1041 149.172 76.4392 150.966 74.2381C152.953 71.7981 154.008 68.8724 154.277 65.8106C154.884 58.9568 152.586 52.1457 153.568 45.2976C154.085 41.6978 155.542 38.4418 157.518 35.349C159.461 32.3067 161.763 29.4723 163.508 26.3154C165.171 23.3101 166.475 19.7394 165.741 16.3105C165.147 13.5305 163.241 11.2051 160.662 9.81216C159.203 9.02537 157.61 8.66014 156.028 8.66014C151.946 8.66014 147.936 11.0905 146.487 14.9545C146.205 15.7083 145.541 16.0308 144.881 16.0308C143.845 16.0308 142.813 15.2343 143.259 14.0473C143.849 12.4756 144.72 11.0769 145.872 9.81993C148.117 7.37213 151.366 5.81213 154.749 5.4741C155.16 5.43331 155.571 5.41194 155.981 5.41194M155.981 0.930115C155.405 0.930115 154.825 0.959255 154.255 1.01559C149.662 1.47601 145.31 3.61105 142.319 6.87479C140.776 8.55912 139.598 10.4649 138.819 12.5417C138.122 14.4008 138.388 16.3669 139.549 17.9327C140.746 19.5471 142.74 20.5126 144.881 20.5126C147.631 20.5126 150.003 18.9215 150.927 16.4601C151.648 14.5368 153.793 13.142 156.028 13.142C156.86 13.142 157.638 13.3323 158.337 13.7112C159.802 14.5019 160.82 15.7763 161.124 17.2042C161.512 19.0206 160.911 21.3849 159.336 24.2309C158.392 25.9366 157.232 27.5879 156.002 29.3344C155.168 30.5195 154.306 31.7434 153.489 33.0236C150.959 36.9867 149.458 40.8022 148.9 44.6915C148.301 48.8605 148.741 52.8178 149.166 56.645C149.507 59.728 149.83 62.6402 149.582 65.4357C149.374 67.8039 148.585 69.8418 147.239 71.495C146.044 72.9617 144.289 74.2459 142.021 75.3105C138.846 76.8005 135.129 77.5271 130.661 77.5271C128.814 77.5271 126.842 77.4047 124.638 77.156C121.596 76.8122 118.608 76.3226 115.444 75.8039C110.722 75.0307 105.841 74.2303 100.817 73.9661C99.1456 73.8787 97.4396 73.834 95.7499 73.834C90.0353 73.834 84.2103 74.3411 78.4385 75.3396C63.4439 77.9351 37.5656 89.8847 26.1364 98.0479C24.7103 99.0659 23.2719 100.16 21.8601 101.3C20.5729 102.339 19.7843 103.878 19.6964 105.523C19.6065 107.225 20.2542 108.89 21.474 110.091C22.6835 111.282 24.3037 111.938 26.0383 111.938C27.585 111.938 29.0969 111.406 30.2941 110.438C40.9429 101.85 65.295 90.38 78.5447 87.7127C84.194 86.5743 89.9699 85.9992 95.7091 85.9992C96.7838 85.9992 97.8707 86.0187 98.9413 86.0595C103.853 86.244 108.673 87.023 113.774 87.8487C116.702 88.3227 119.73 88.8123 122.783 89.1795C125.561 89.5155 128.111 89.6768 130.573 89.6768C136.774 89.6768 142.17 88.6336 147.071 86.4888C155.084 82.9822 160.501 76.6626 161.929 69.1521C162.812 64.5168 162.342 60.1263 161.888 55.8795C161.565 52.8567 161.261 50.0028 161.465 47.2442C161.649 44.7381 162.566 42.2612 164.352 39.4462C165.079 38.298 165.872 37.1732 166.71 35.9823C168.081 34.0338 169.499 32.0173 170.71 29.7793C173.377 24.8506 174.406 20.3649 173.857 16.0657C173.285 11.5956 170.859 7.54503 167.025 4.66205C163.827 2.25698 159.904 0.934 155.977 0.934L155.981 0.930115Z" fill="#221F20"/>
    <path d="M33.4489 38.4129C31.3036 33.7252 25.3683 34.6363 25.3683 34.6363C25.3683 34.6363 29.1113 31.9962 27.058 27.3434C24.3181 21.1365 16.6053 24.7382 16.6053 24.7382L5.73993 29.6863L17.1978 52.5189L29.2952 46.8753C29.2952 46.8753 35.7331 43.8797 33.4509 38.411L33.4489 38.4129ZM17.0609 36.2429L13.7286 29.7757C19.2062 26.9548 20.9408 30.339 21.2595 32.7266C21.7622 34.8966 17.0609 36.2429 17.0609 36.2429ZM22.1401 46.1391L18.5667 39.2036C24.4407 36.1788 26.302 39.8078 26.6432 42.3683C27.1826 44.6956 22.1401 46.1391 22.1401 46.1391Z" fill="white"/>
    <path d="M17.1957 57.123C16.6584 57.123 16.121 57.0375 15.6041 56.8666C14.3823 56.4625 13.3812 55.6116 12.8255 54.5004L1.36964 31.6716C0.219361 29.3792 1.23888 26.6342 3.64773 25.5366L14.4988 20.5943C15.2159 20.2641 20.4361 18.0028 25.405 19.7726C28.1714 20.7575 30.2861 22.7604 31.5222 25.5638C32.4293 27.6211 32.6479 29.5172 32.4497 31.1957C34.6175 32.1806 36.6443 33.8552 37.8886 36.577C37.909 36.6236 37.9294 36.6702 37.9498 36.7168C39.5517 40.5537 38.7916 44.5712 35.8638 47.7378C33.9964 49.7602 31.8368 50.8228 31.422 51.0151L19.3288 56.6568C18.6586 56.9695 17.9292 57.1269 17.1957 57.1269V57.123Z" fill="#221F20"/>
    <path d="M44.2346 15.9418L37.8703 18.2303L37.3268 43.468L41.129 42.0654L41.2843 34.7589L48.658 32.3985L53.6248 38.2286L60.8412 35.3514L44.2326 15.9438L44.2346 15.9418ZM41.0535 31.365L41.2864 23.1745L46.4085 29.4475L41.0535 31.365Z" fill="white"/>
    <path d="M37.3288 48.0721C36.3502 48.0721 35.3776 47.7904 34.5522 47.2406C33.2282 46.3605 32.4539 44.9093 32.4866 43.3746L33.0301 18.1369C33.0709 16.2564 34.3091 14.5895 36.1581 13.9251L42.5224 11.6366C44.4716 10.9353 46.6741 11.5006 47.9899 13.0373L64.5985 32.4449C65.5608 33.5698 65.9102 35.0618 65.5404 36.4683C65.1705 37.8748 64.1224 39.0346 62.7167 39.596L55.5004 42.4732C53.5165 43.2639 51.2201 42.716 49.8655 41.1249L47.0173 37.7816L46.0591 38.0885L45.9733 42.1565C45.9345 44.0235 44.7127 45.6806 42.8841 46.3567L39.0818 47.7593C38.5159 47.9672 37.9213 48.0701 37.3309 48.0701L37.3288 48.0721Z" fill="#221F20"/>
    <path d="M66.2064 10.5544L58.9104 11.7355L63.3337 35.3491L72.9569 34.0203C72.9569 34.0203 81.2724 32.2486 81.3378 25.0916C81.4154 16.7535 78.3896 9.29937 66.2043 10.5544H66.2064ZM68.5356 31.3646L65.5873 13.9502C65.5873 13.9502 73.7353 11.7375 74.8223 22.5836C75.6763 32.1028 68.5356 31.3646 68.5356 31.3646Z" fill="white"/>
    <path d="M63.3296 39.9551C61.0208 39.9551 58.9859 38.3815 58.5691 36.1591L54.1457 12.5455C53.9189 11.3371 54.209 10.0938 54.9527 9.08941C55.6944 8.08503 56.8283 7.40508 58.1012 7.19915L65.3972 6.01799C65.4932 6.00245 65.5913 5.98885 65.6894 5.97913C71.9311 5.3361 76.9123 6.57554 80.4959 9.66056C84.337 12.967 86.2514 18.1735 86.1861 25.1342C86.1064 33.686 78.1933 37.6258 74.0213 38.5156C73.9007 38.5408 73.7802 38.5622 73.6576 38.5797L64.0344 39.9085C63.7995 39.9415 63.5645 39.9571 63.3336 39.9571L63.3296 39.9551Z" fill="#221F20"/>
    <path d="M99.0272 7.34106H92.1193L83.1949 32.2835H87.1525L89.6349 25.4199H97.6276L100.188 32.2835H108.182L99.0251 7.34106H99.0272ZM90.9548 21.2139L93.5945 14.0551L96.3895 21.2139H90.9568H90.9548Z" fill="white"/>
    <path d="M108.184 36.8877H100.19C98.1404 36.8877 96.3118 35.6599 95.6273 33.8241L94.2094 30.0261H93.0898L91.7311 33.7833C91.0589 35.6424 89.2201 36.8897 87.1524 36.8897H83.1949C81.6339 36.8897 80.167 36.1728 79.2578 34.9664C78.3486 33.76 78.1075 32.2097 78.6101 30.8032L87.5345 5.86076C88.2026 3.99382 90.0455 2.73883 92.1193 2.73883H99.0271C101.087 2.73883 102.919 3.97633 103.598 5.82579L112.755 30.7682C113.272 32.1766 113.039 33.7347 112.132 34.9508C111.223 36.167 109.752 36.8897 108.184 36.8897V36.8877Z" fill="#221F20"/>
    <path d="M49.6222 79.4855C49.2973 79.4855 48.9725 79.4214 48.668 79.2951C48.0653 79.0425 47.6015 78.5646 47.3829 77.974L37.1325 50.0768C36.7076 48.9189 37.3307 47.6523 38.5382 47.221L44.4796 45.1015C44.7493 45.0063 45.0313 44.9578 45.3132 44.9578C45.6565 44.9578 45.9997 45.0296 46.3184 45.1695C46.8966 45.426 47.34 45.8941 47.5525 46.4672L57.7293 74.0809C58.142 75.1999 57.574 76.4296 56.4278 76.8978L50.56 79.299C50.2596 79.4214 49.9409 79.4835 49.6222 79.4835V79.4855Z" fill="white"/>
    <path d="M45.3154 47.2153L55.4902 74.8289L49.6223 77.2301L39.3719 49.3329L45.3133 47.2134M45.3133 42.7043C44.7494 42.7043 44.1855 42.7995 43.6482 42.9919L37.7068 45.1114C35.2938 45.972 34.0455 48.5072 34.8954 50.821L45.1458 78.7182C45.5789 79.8994 46.5106 80.8552 47.714 81.3603C48.3229 81.6148 48.9726 81.7411 49.6223 81.7411C50.272 81.7411 50.8993 81.6187 51.4979 81.3739L57.3658 78.9727C59.6541 78.0363 60.7901 75.5749 59.9667 73.3389L49.7919 45.7253C49.371 44.581 48.4802 43.6446 47.3258 43.1317C46.6904 42.85 46.0039 42.7063 45.3154 42.7063L45.3133 42.7043Z" fill="#221F20"/>
    <path d="M60.2795 75.8798C59.83 75.8798 59.3846 75.7574 58.9985 75.5223C58.4632 75.196 58.0893 74.6792 57.9585 74.0886L51.5083 44.8859C51.2468 43.7028 52.013 42.5352 53.245 42.236L62.5065 39.998C62.7006 39.9514 62.8968 39.9281 63.0909 39.9281C63.7917 39.9281 64.4679 40.2234 64.9235 40.7537L74.3648 51.6989L72.2134 39.6639C72.1072 39.0675 72.2563 38.4555 72.6282 37.966C73 37.4764 73.5639 37.1481 74.1932 37.0568L79.7301 36.2525C79.8486 36.235 79.9692 36.2272 80.0877 36.2272C80.5964 36.2272 81.097 36.3826 81.5097 36.6779C82.0184 37.0412 82.3535 37.5832 82.4393 38.1835L86.595 67.6272C86.7585 68.787 85.9617 69.873 84.7603 70.1274L76.8105 71.8137C76.6389 71.8506 76.4652 71.8681 76.2936 71.8681C75.605 71.8681 74.941 71.5825 74.4854 71.0735L64.7826 60.2099L67.5224 72.0838C67.8023 73.2941 67.0014 74.4927 65.7285 74.7666L60.7985 75.8273C60.6248 75.8643 60.4491 75.8837 60.2754 75.8837L60.2795 75.8798Z" fill="white"/>
    <path d="M80.0897 38.4827L84.2454 67.9263L76.2956 69.6126L60.4287 51.8446L65.2096 72.5655L60.2775 73.6262L53.8273 44.4234L63.0888 42.1855L78.1998 59.7028L74.5487 39.2869L80.0856 38.4827M80.0856 33.9736C79.8466 33.9736 79.6075 33.9911 79.3685 34.0261L73.8316 34.8304C72.5751 35.013 71.4473 35.6677 70.7015 36.6487C69.9578 37.6298 69.6575 38.8518 69.872 40.0446L70.5258 43.6969L66.7542 39.3258C65.8409 38.267 64.4863 37.6764 63.0868 37.6764C62.6986 37.6764 62.3063 37.7211 61.9181 37.8163L52.6566 40.0543C50.1926 40.6488 48.6602 42.9858 49.1833 45.3521L55.6334 74.5548C55.8949 75.7379 56.6448 76.7714 57.7133 77.4242C58.4836 77.8943 59.3744 78.1391 60.2754 78.1391C60.6248 78.1391 60.9762 78.1022 61.3215 78.0284L66.2536 76.9677C68.7973 76.4198 70.3991 74.0245 69.8393 71.6019L69.1406 68.5752L72.6772 72.5344C73.5885 73.5563 74.9185 74.1255 76.2936 74.1255C76.6368 74.1255 76.9821 74.0905 77.3274 74.0167L85.2772 72.3304C87.6799 71.8214 89.2736 69.6475 88.9446 67.3279L84.7889 37.8843C84.6193 36.6857 83.9512 35.5997 82.9317 34.875C82.1063 34.2864 81.1072 33.9756 80.0877 33.9756L80.0856 33.9736Z" fill="#221F20"/>
    <path d="M101.146 69.8615C100.282 69.8615 99.3483 69.8266 98.3697 69.7586C93.9299 69.4458 89.9663 67.0194 87.2081 62.9261C84.8156 59.3748 83.5897 54.9726 83.8471 50.8502C84.1025 46.7725 85.7615 42.6365 88.4012 39.5009C91.4006 35.938 95.4848 33.8496 99.8979 33.6184C99.9286 33.6184 99.9613 33.6165 99.9919 33.6145C100.127 33.6126 100.264 33.6107 100.396 33.6107C111.295 33.6107 113.826 40.142 113.928 40.4198C114.233 41.2435 114.008 42.1605 113.352 42.7744L108.969 46.8716C108.508 47.3028 107.893 47.5496 107.265 47.5496C107.022 47.5496 106.775 47.5127 106.536 47.433C105.69 47.1552 105.087 46.4869 104.969 45.6438C104.85 45.1212 104.113 42.8249 100.274 42.7861C97.4462 43.058 96.6494 46.4325 96.5125 50.3743C96.8557 50.1042 97.2807 49.9236 97.7506 49.873L113.199 48.1771C113.289 48.1673 113.381 48.1615 113.47 48.1615C114.049 48.1615 114.611 48.3636 115.048 48.7327C115.552 49.1601 115.84 49.772 115.84 50.417V66.1665C115.84 67.4118 114.778 68.422 113.468 68.422H111.76C111.158 68.422 110.637 68.2549 110.197 67.8644C110.118 67.8062 110.007 67.7421 109.915 67.7013C109.846 67.7421 109.766 67.7926 109.697 67.8334C108.091 68.8144 105.972 69.8615 101.138 69.8615H101.146ZM98.8273 60.2918C99.5751 60.9115 100.503 61.2379 101.655 61.302C101.696 61.3039 101.739 61.3078 101.78 61.3117C101.904 61.3253 102.027 61.3311 102.141 61.3311C102.94 61.3311 103.42 60.9853 103.678 60.7095V59.7828L98.8294 60.2898L98.8273 60.2918Z" fill="white"/>
    <path d="M100.4 35.8659C109.742 35.8659 111.695 41.1656 111.695 41.1656L107.312 45.2627C107.312 45.2627 106.495 40.5303 100.182 40.5303C93.4231 41.0257 94.0912 50.7004 94.1668 54.2322C94.2199 56.7752 95.1312 63.2017 101.52 63.5553C101.737 63.5786 101.945 63.5883 102.143 63.5883C105.012 63.5883 106.05 61.3658 106.05 61.3658V57.2687L97.9527 58.1157L98.0263 52.1127L113.476 50.4167V66.1663H111.768C111.768 66.1663 110.867 65.4047 109.848 65.4047C109.625 65.4047 109.396 65.4416 109.17 65.529C108.058 65.9642 106.887 67.6039 101.148 67.6039C100.37 67.6039 99.5055 67.5728 98.5473 67.5067C90.526 66.9414 85.7716 58.1137 86.217 50.9801C86.6624 43.8465 91.9357 36.2894 100.033 35.8659C100.155 35.8659 100.28 35.8639 100.4 35.8639M100.4 31.3549C100.255 31.3549 100.108 31.3549 99.9591 31.3588C99.8958 31.3588 99.8345 31.3627 99.7711 31.3646C94.6735 31.6308 89.9804 34.0203 86.5521 38.0903C83.612 41.5813 81.765 46.1817 81.481 50.714C81.195 55.3027 82.5537 60.1963 85.2118 64.14C88.3827 68.8452 92.9941 71.6389 98.1959 72.0041C99.2317 72.0779 100.225 72.1148 101.146 72.1148C105.506 72.1148 108.036 71.3125 109.934 70.3256C110.51 70.5548 111.131 70.6753 111.766 70.6753H113.474C116.094 70.6753 118.216 68.6568 118.216 66.1663V50.4167C118.216 49.1307 117.638 47.9048 116.629 47.05C115.757 46.3099 114.631 45.9077 113.474 45.9077C113.444 45.9077 113.413 45.9077 113.385 45.9077L115.017 44.3808C116.327 43.1569 116.776 41.3229 116.167 39.6736C115.953 39.0888 115.06 37.0315 112.6 35.0635C110.485 33.3714 106.652 31.3549 100.396 31.3549H100.4ZM99.1929 47.4444C99.2338 47.2482 99.2787 47.0539 99.3298 46.8655C99.6179 45.7873 99.953 45.3424 100.084 45.2025C100.153 45.1268 100.204 45.0743 100.396 45.0432C101.686 45.0801 102.448 45.4512 102.662 46.1506C102.728 46.4556 102.824 46.7509 102.95 47.0326L99.1929 47.4444Z" fill="#221F20"/>
    <path d="M28.7497 89.9277C28.1409 89.9277 27.5749 89.883 27.0641 89.7956L26.8169 89.7528C25.6707 89.5566 24.8433 88.5989 24.8657 87.4915L24.8698 87.2506C24.8964 85.8966 24.9189 84.5347 24.9372 83.169V83.0039C24.9515 82.1957 25.4153 81.4556 26.157 81.0631L26.8088 80.7173C27.1643 80.5289 27.5606 80.4337 27.9611 80.4337C28.1266 80.4337 28.2921 80.4492 28.4555 80.4842L28.5638 80.5056C28.7232 80.5386 29.0909 80.591 29.7815 80.591H29.8816C31.0891 80.5056 32.4131 80.0937 33.8208 79.3633C34.7831 78.864 35.4165 78.3045 35.6024 77.7897C35.7107 77.4905 35.8006 77.0009 35.349 76.1966C35.1386 75.8236 34.9159 75.6935 34.7667 75.6294C34.2968 75.4273 33.7574 75.3108 33.169 75.2855C32.9361 75.2758 32.6746 75.27 32.3926 75.27C31.6612 75.27 30.7888 75.303 29.7979 75.3691C28.4024 75.4623 27.1969 75.507 26.112 75.507C25.4909 75.507 24.9025 75.4914 24.3631 75.4604C22.6183 75.3632 20.9102 74.9028 19.2941 74.0946C17.5329 73.2165 16.0762 71.7614 14.9627 69.7741C13.9636 67.9868 13.5121 66.0441 13.6244 63.9945C13.7368 61.9683 14.4233 59.9906 15.6655 58.1178C16.8914 56.2723 18.6383 54.6598 20.8571 53.3232C23.4682 51.7516 26.0773 50.8133 28.6108 50.5355C29.285 50.4364 29.9633 50.3859 30.6233 50.3859C31.0707 50.3859 31.5161 50.4092 31.9472 50.4558L32.2087 50.483C33.3999 50.6093 34.305 51.5612 34.3173 52.7016V52.9522C34.3336 54.3859 34.3479 55.8177 34.3602 57.2436V57.4029C34.3683 58.2072 33.927 58.9532 33.1997 59.3631L32.5561 59.7264C32.1883 59.9343 31.7695 60.0411 31.3465 60.0411C31.1954 60.0411 31.0442 60.0275 30.895 60.0003L30.7847 59.9789C30.6641 59.9576 30.3107 59.9071 29.52 59.8973C28.3779 59.9848 27.2337 60.3617 26.1161 61.0183C25.5195 61.3699 25.1477 61.8226 24.9475 62.4423C24.688 63.2505 24.8698 63.5768 24.9475 63.7148C25.1375 64.0528 25.303 64.1422 25.4419 64.1985C25.8975 64.385 26.4206 64.4841 26.9988 64.4996C27.1397 64.5035 27.2868 64.5054 27.4421 64.5054C28.2022 64.5054 29.1706 64.4646 30.4006 64.3811C31.5345 64.3053 32.6051 64.2665 33.5817 64.2665C34.4276 64.2665 35.2203 64.2956 35.9395 64.3539C37.7129 64.4977 39.4516 65.0203 41.1086 65.91C42.88 66.8619 44.3572 68.3773 45.5034 70.419C46.6189 72.4084 47.1338 74.4774 47.0357 76.5716C46.9336 78.7202 46.1388 80.7639 44.6718 82.6445C43.2927 84.4123 41.3109 85.9568 38.7815 87.237C36.53 88.3774 34.3622 89.1564 32.3395 89.5547C31.7511 89.6713 31.1627 89.7567 30.5947 89.8092C29.9347 89.885 29.3116 89.9238 28.7416 89.9238L28.7497 89.9277Z" fill="white"/>
    <path d="M30.6273 52.645C30.9869 52.645 31.3424 52.6625 31.6897 52.6994L31.9513 52.7266V52.9772C31.9676 54.409 31.9819 55.8389 31.9942 57.2648V57.426L31.3526 57.7893L31.2423 57.768C30.8296 57.6922 30.2269 57.6495 29.4505 57.6456C27.8895 57.7446 26.351 58.2362 24.8739 59.1045C23.789 59.7418 23.0534 60.6451 22.6857 61.7874C22.3179 62.9336 22.3751 63.9108 22.8634 64.7792C23.2659 65.498 23.8073 65.9875 24.5204 66.277C25.2498 66.5742 26.067 66.7355 26.9497 66.7569C27.107 66.7607 27.2745 66.7627 27.4523 66.7627C28.2695 66.7627 29.2993 66.7199 30.5783 66.6345C31.6611 66.5606 32.6684 66.5257 33.5919 66.5257C34.3744 66.5257 35.0956 66.5529 35.7515 66.6034C37.1817 66.718 38.5955 67.1473 39.9542 67.8759C41.3251 68.6121 42.4918 69.8263 43.4214 71.4815C44.3347 73.1095 44.7556 74.788 44.6759 76.4723C44.5962 78.1644 43.9567 79.7885 42.7758 81.3019C41.6091 82.7978 39.8929 84.1246 37.6761 85.2475C35.6187 86.2888 33.6716 86.9921 31.8675 87.3476C31.3485 87.4506 30.8418 87.5224 30.3474 87.5671C29.7692 87.6351 29.2359 87.6681 28.7517 87.6681C28.2675 87.6681 27.8589 87.6371 27.487 87.5729L27.2378 87.5302L27.2418 87.2893C27.2684 85.9314 27.2909 84.5656 27.3093 83.1941V83.0309L27.9631 82.6851L28.0714 82.7065C28.5168 82.7978 29.0929 82.8425 29.7855 82.8425C29.8468 82.8425 29.9102 82.8425 29.9735 82.8425C31.5385 82.7473 33.2221 82.2402 34.9587 81.3407C36.487 80.5481 37.4595 79.6001 37.8498 78.518C38.238 77.4417 38.1031 76.3033 37.4452 75.1338C37.0387 74.4072 36.4666 73.8827 35.7474 73.5738C34.9996 73.2533 34.1701 73.0707 33.2813 73.0337C33.0096 73.0221 32.7133 73.0163 32.3967 73.0163C31.6121 73.0163 30.6866 73.0512 29.6384 73.1212C28.3084 73.2086 27.1417 73.2533 26.1181 73.2533C25.5379 73.2533 25.0026 73.2397 24.5102 73.2105C23.1025 73.1309 21.7193 72.7579 20.4035 72.0993C19.0714 71.4349 17.9456 70.2945 17.0609 68.7151C16.2661 67.295 15.9086 65.7467 15.9985 64.1128C16.0884 62.4771 16.6543 60.8646 17.6779 59.3202C18.7138 57.7602 20.2135 56.3848 22.132 55.2288C24.455 53.8301 26.7433 53.0025 28.9356 52.7713C29.5077 52.6839 30.0736 52.6412 30.6294 52.6412M30.6294 48.1321C29.8632 48.1321 29.0807 48.1885 28.3002 48.3012C25.4235 48.6236 22.4957 49.6727 19.5964 51.4192C17.0773 52.9345 15.0832 54.784 13.6693 56.9132C12.2044 59.1201 11.3953 61.463 11.2625 63.8778C11.1277 66.3411 11.6691 68.6801 12.8745 70.8346C14.2148 73.2299 16.0067 74.9998 18.1989 76.0935C20.1134 77.0513 22.1442 77.5972 24.2303 77.7137C24.8126 77.7467 25.448 77.7642 26.1181 77.7642C27.2582 77.7642 28.5168 77.7176 29.9694 77.6205C30.9031 77.5583 31.7224 77.5272 32.3967 77.5272H32.4028C31.4446 77.9915 30.5456 78.2693 29.7794 78.3354C29.2686 78.3354 29.0582 78.2985 29.0561 78.2985L28.956 78.2771C28.6271 78.2091 28.2941 78.1761 27.961 78.1761C27.1601 78.1761 26.3653 78.3684 25.6543 78.7453L25.0026 79.0911C23.5172 79.8759 22.5876 81.3582 22.5651 82.9746V83.1378C22.5447 84.4996 22.5222 85.8692 22.4957 87.2077L22.4916 87.4486C22.4487 89.6633 24.1036 91.5788 26.3939 91.9693L26.6432 92.012C27.2909 92.1228 27.9998 92.1791 28.7476 92.1791C29.4055 92.1791 30.1145 92.1364 30.8582 92.0509C31.5018 91.9907 32.1637 91.8935 32.8278 91.7634C35.0711 91.3204 37.4514 90.4676 39.9031 89.2281C42.7472 87.7886 44.9946 86.0266 46.5842 83.9887C48.3372 81.7409 49.2893 79.2795 49.4119 76.6744C49.5304 74.1702 48.9215 71.7088 47.6037 69.3581C46.243 66.9317 44.4532 65.1114 42.2834 63.9477C40.3261 62.8986 38.2625 62.2789 36.1499 62.108C35.3612 62.0458 34.499 62.0128 33.5878 62.0128C33.3917 62.0128 33.1935 62.0128 32.9912 62.0167C33.2589 61.9234 33.5204 61.8049 33.7696 61.665L34.4132 61.3017C35.8659 60.4819 36.7506 58.9899 36.7363 57.3852V57.224C36.722 55.7961 36.7097 54.3643 36.6954 52.9306V52.68C36.6688 50.3993 34.8586 48.4954 32.4763 48.2429L32.2148 48.2157C31.6979 48.1613 31.1626 48.1321 30.6273 48.1321H30.6294ZM29.3606 62.1896C29.4464 62.176 29.5322 62.1643 29.618 62.1565C29.6977 62.1565 29.7692 62.1604 29.8325 62.1624C29.6711 62.1721 29.5138 62.1818 29.3606 62.1896Z" fill="#221F20"/>
    <path d="M33.449 38.4129C31.3037 33.7252 25.3684 34.6363 25.3684 34.6363C25.3684 34.6363 29.1114 31.9962 27.0581 27.3434C24.3182 21.1365 16.6054 24.7382 16.6054 24.7382L5.74005 29.6863L17.1979 52.5189L29.2953 46.8753C29.2953 46.8753 35.7332 43.8797 33.451 38.411L33.449 38.4129ZM17.061 36.2429L13.7287 29.7757C19.2063 26.9548 20.9409 30.339 21.2597 32.7266C21.7623 34.8966 17.061 36.2429 17.061 36.2429ZM22.1403 46.1391L18.5668 39.2036C24.4408 36.1788 26.3021 39.8078 26.6433 42.3683C27.1827 44.6956 22.1403 46.1391 22.1403 46.1391Z" fill="white"/>
    <path d="M44.2347 15.9417L37.8704 18.2302L37.3269 43.4679L41.1292 42.0653L41.2844 34.7588L48.6581 32.3984L53.625 38.2284L60.8413 35.3513L44.2327 15.9437L44.2347 15.9417ZM41.0536 31.3649L41.2865 23.1744L46.4086 29.4474L41.0536 31.3649Z" fill="white"/>
    <path d="M66.2066 10.5544L58.9106 11.7355L63.3339 35.3491L72.9571 34.0203C72.9571 34.0203 81.2726 32.2486 81.338 25.0916C81.4156 16.7535 78.3898 9.29937 66.2045 10.5544H66.2066ZM68.5357 31.3646L65.5875 13.9502C65.5875 13.9502 73.7355 11.7375 74.8224 22.5836C75.6765 32.1028 68.5357 31.3646 68.5357 31.3646Z" fill="white"/>
    <path d="M99.0273 7.34106H92.1195L83.1951 32.2835H87.1526L89.635 25.4199H97.6277L100.188 32.2835H108.183L99.0252 7.34106H99.0273ZM90.9549 21.2139L93.5946 14.0551L96.3896 21.2139H90.9569H90.9549Z" fill="white"/>
    <path d="M39.3721 49.3348L45.3156 47.2153L55.4904 74.8308L49.6225 77.232L39.3721 49.3348Z" fill="white"/>
    <path d="M63.0906 42.1853L78.2016 59.7008L74.5505 39.2868L80.0894 38.4825L84.2452 67.9242L76.2953 69.6105L60.4284 51.8445L65.2093 72.5634L60.2792 73.6241L53.8291 44.4214L63.0906 42.1853Z" fill="white"/>
    <path d="M98.026 52.1126L113.474 50.4166V66.1661H111.766C111.766 66.1661 110.43 65.0355 109.167 65.5309C107.905 66.0243 106.566 68.0739 98.545 67.5086C90.5237 66.9432 85.7693 58.1156 86.2147 50.982C86.6601 43.8484 91.9334 36.2912 100.03 35.8677C109.686 35.7259 111.693 41.1655 111.693 41.1655L107.31 45.2626C107.31 45.2626 106.493 40.5302 100.18 40.5302C93.4208 41.0256 94.0889 50.7003 94.1645 54.2321C94.2177 56.7751 95.1289 63.2016 101.518 63.5551C104.86 63.9087 106.049 61.3657 106.049 61.3657V57.2686L97.9525 58.1156L98.026 52.1126Z" fill="white"/>
    <path d="M39.9543 67.8777C38.5956 67.1492 37.1818 66.7218 35.7516 66.6052C34.3193 66.4906 32.5786 66.5003 30.5763 66.6363C29.0195 66.7412 27.8324 66.782 26.9477 66.7587C26.0671 66.7373 25.2499 66.5761 24.5184 66.2788C23.8054 65.9894 23.264 65.4998 22.8615 64.781C22.3752 63.9126 22.318 62.9335 22.6837 61.7892C23.0515 60.6469 23.787 59.7436 24.8719 59.1064C26.347 58.238 27.8876 57.7465 29.4465 57.6474C30.2229 57.6532 30.8256 57.694 31.2383 57.7698L31.3486 57.7912L31.9922 57.4279V57.2666C31.9779 55.8407 31.9657 54.4109 31.9493 52.9791V52.7285L31.6857 52.7013C30.8052 52.608 29.8735 52.6333 28.9296 52.777C26.7393 53.0102 24.451 53.8358 22.1259 55.2346C20.2074 56.3905 18.7078 57.7678 17.6719 59.3259C16.6483 60.8703 16.0824 62.4828 15.9925 64.1186C15.9026 65.7524 16.2601 67.3007 17.0549 68.7208C17.9396 70.3022 19.0633 71.4406 20.3974 72.105C21.7132 72.7636 23.0964 73.1366 24.5041 73.2162C25.871 73.294 27.5484 73.2648 29.6324 73.1269C31.1055 73.0297 32.3334 73.0006 33.2773 73.0395C34.1661 73.0783 34.9977 73.259 35.7434 73.5795C36.4626 73.8884 37.0347 74.413 37.4412 75.1395C38.0971 76.309 38.234 77.4475 37.8458 78.5237C37.4555 79.6058 36.483 80.5558 34.9548 81.3465C33.2181 82.2459 31.5345 82.753 29.9695 82.8482C29.1911 82.8579 28.5516 82.8113 28.0674 82.7122L27.9591 82.6908L27.3073 83.0366V83.1998C27.2869 84.5714 27.2644 85.9351 27.2378 87.295L27.2338 87.5359L27.483 87.5787C28.241 87.7088 29.2033 87.7069 30.3454 87.5728C30.8399 87.5282 31.3466 87.4543 31.8655 87.3533C33.6696 86.9978 35.6167 86.2945 37.6742 85.2533C39.891 84.1323 41.6072 82.8035 42.7738 81.3076C43.9547 79.7942 44.5942 78.1701 44.6739 76.478C44.7536 74.7937 44.3307 73.1152 43.4194 71.4872C42.4898 69.8301 41.3232 68.6179 39.9522 67.8816L39.9543 67.8777Z" fill="white"/>
    <path d="M137.53 44.3676C136.86 44.3676 136.212 44.0976 135.758 43.6119C134.712 42.4948 133.456 41.609 132.022 40.9795C130.579 40.3462 129.045 40.0101 127.461 39.9829C126.632 39.9674 125.872 39.5439 125.457 38.862C125.04 38.1801 125.028 37.3428 125.424 36.6512L138.558 13.7C138.985 12.9521 139.798 12.5228 140.642 12.5228C140.968 12.5228 141.301 12.5869 141.618 12.7248L143.287 13.4456C144.767 14.0847 146.219 14.7103 147.674 15.33C148.894 15.8487 149.848 17.1872 149.063 18.9007L149.053 18.922C147.915 21.8691 141.604 38.1335 139.755 42.895C139.467 43.6371 138.788 44.183 137.971 44.3287C137.824 44.3559 137.677 44.3676 137.53 44.3676Z" fill="white"/>
    <path d="M140.64 14.7761C142.709 15.6678 144.703 16.5323 146.706 17.3852C147.167 17.5814 146.938 17.8611 146.838 18.1195C145.737 20.9714 139.532 36.9657 137.532 42.1119C136.31 40.8064 134.794 39.7107 133.017 38.9317C131.229 38.1468 129.355 37.7603 127.506 37.7272C131.889 30.0691 136.255 22.4381 140.64 14.7761ZM140.642 10.2651C138.954 10.2651 137.328 11.1258 136.474 12.6197L125.643 31.5455L123.34 35.5708C122.548 36.954 122.574 38.6325 123.406 39.9944C124.239 41.3562 125.759 42.2071 127.416 42.2362C128.671 42.2596 129.884 42.5238 131.029 43.0269C132.165 43.5262 133.162 44.2275 133.989 45.1114C134.898 46.0828 136.192 46.6229 137.532 46.6229C137.824 46.6229 138.118 46.5976 138.413 46.5452C140.049 46.2518 141.404 45.162 141.982 43.6758C143.888 38.7705 150.064 22.85 151.26 19.7572C151.431 19.3784 151.824 18.4672 151.707 17.255C151.536 15.5027 150.391 14.0126 148.647 13.2686C147.198 12.6508 145.774 12.0369 144.266 11.3861C143.714 11.1491 143.161 10.9082 142.599 10.6673C141.966 10.3953 141.299 10.2651 140.644 10.2651H140.642Z" fill="#221F20"/>
    <path d="M133.017 38.9317C134.792 39.7107 136.308 40.8064 137.532 42.1119C139.53 36.9656 145.737 20.9714 146.838 18.1195C146.938 17.8611 147.167 17.5813 146.705 17.3851C144.705 16.5323 142.709 15.6678 140.639 14.7761C136.255 22.4381 131.889 30.069 127.506 37.7272C129.355 37.7602 131.229 38.1468 133.017 38.9317Z" fill="white"/>
    <path d="M135.229 35.0851C135.148 35.0676 135.066 35.0423 134.986 35.0093C134.224 34.7023 133.869 33.865 134.194 33.1404L135.701 29.7679C136.024 29.0432 136.905 28.7052 137.667 29.0141C138.429 29.321 138.784 30.1584 138.46 30.883L136.952 34.2555C136.662 34.9044 135.926 35.2424 135.229 35.087V35.0851Z" fill="#020202"/>
    <path d="M127.586 62.0012C126.017 62.0012 124.48 61.7137 123.017 61.1464C117.117 58.8618 114.052 52.5247 116.042 46.7199C116.246 46.1254 116.702 45.6358 117.299 45.3736C117.615 45.2337 117.957 45.1638 118.298 45.1638C118.602 45.1638 118.905 45.2201 119.193 45.3308L137.379 52.3731C137.989 52.6101 138.47 53.0764 138.703 53.6631C138.935 54.2498 138.901 54.9025 138.609 55.464C136.535 59.4349 132.209 62.0012 127.59 62.0012H127.586Z" fill="white"/>
    <path d="M118.296 47.4191L136.482 54.4614C134.757 57.762 131.259 59.7475 127.586 59.7475C126.36 59.7475 125.116 59.526 123.91 59.0597C119.093 57.1947 116.694 52.0913 118.294 47.4191M118.294 42.91C117.611 42.91 116.929 43.0499 116.298 43.3297C115.102 43.8561 114.193 44.8333 113.785 46.0242C112.638 49.3676 112.851 52.9674 114.379 56.1612C115.924 59.39 118.674 61.9019 122.123 63.2385C123.871 63.9165 125.71 64.2584 127.586 64.2584C130.287 64.2584 132.939 63.5396 135.256 62.1817C137.605 60.8043 139.497 58.8286 140.729 56.4682C141.316 55.3453 141.385 54.0398 140.917 52.8664C140.451 51.693 139.491 50.7586 138.269 50.2845L120.084 43.2422C119.509 43.0208 118.903 42.91 118.294 42.91Z" fill="#221F20"/>
    <path d="M137.285 54.7451C136.98 54.7451 136.678 54.6887 136.39 54.578L118.204 47.5357C117.595 47.2987 117.115 46.8324 116.882 46.2477C116.649 45.6629 116.682 45.0102 116.972 44.4487C119.035 40.474 123.361 37.9057 127.988 37.9057C129.56 37.9057 131.098 38.1932 132.563 38.7605C135.446 39.8775 137.746 41.9796 139.038 44.6819C140.317 47.357 140.494 50.374 139.54 53.1831C139.338 53.7795 138.882 54.2691 138.284 54.5333C137.967 54.6732 137.626 54.7431 137.283 54.7431L137.285 54.7451Z" fill="white"/>
    <path d="M127.991 40.1634C129.218 40.1634 130.465 40.3848 131.67 40.8511C136.488 42.7161 138.874 47.8157 137.285 52.4918L119.099 45.4495C120.813 42.1469 124.315 40.1634 127.991 40.1634ZM127.991 35.6543C125.287 35.6543 122.636 36.3731 120.319 37.7311C117.965 39.1124 116.073 41.09 114.845 43.4543C114.263 44.5772 114.195 45.8807 114.663 47.0502C115.131 48.2198 116.089 49.1542 117.309 49.6263L135.495 56.6686C136.069 56.89 136.676 57.0008 137.285 57.0008C137.969 57.0008 138.654 56.8609 139.287 56.5792C140.482 56.0489 141.393 55.0717 141.798 53.8769C142.934 50.5335 142.722 46.9376 141.197 43.7496C139.655 40.5208 136.905 38.007 133.458 36.6723C131.707 35.9943 129.868 35.6505 127.988 35.6505L127.991 35.6543Z" fill="#221F20"/>
    <path d="M136.482 54.4613L118.296 47.419C116.696 52.0912 119.093 57.1947 123.912 59.0597C128.73 60.9247 134.183 58.8635 136.482 54.4613Z" fill="white"/>
    <path d="M125.849 52.7231C125.563 53.3894 124.768 53.7197 124.067 53.4497C123.367 53.1777 123.04 52.4123 123.326 51.7459C123.612 51.0796 124.407 50.7493 125.107 51.0213C125.792 51.2855 126.133 52.0567 125.849 52.7231Z" fill="#479962"/>
    <path d="M129.539 54.1509C129.253 54.8173 128.458 55.1475 127.757 54.8775C127.057 54.6055 126.732 53.842 127.016 53.1757C127.3 52.5093 128.097 52.1791 128.797 52.4491C129.498 52.7211 129.823 53.4846 129.539 54.1509Z" fill="#E6873C"/>
    <path d="M131.441 56.3208C130.74 56.0488 130.416 55.2853 130.7 54.619C130.986 53.9526 131.78 53.6224 132.481 53.8924C133.182 54.1644 133.507 54.9279 133.223 55.5942C132.953 56.2664 132.142 56.5908 131.441 56.3208Z" fill="#DA3D32"/>
    <path d="M128.211 58.6366C127.51 58.3647 127.185 57.6012 127.469 56.9348C127.755 56.2685 128.55 55.9382 129.251 56.2083C129.952 56.4802 130.277 57.2437 129.993 57.9101C129.723 58.5822 128.912 58.9067 128.211 58.6366Z" fill="#DA3D32"/>
    <path d="M123.747 55.6253C124.033 54.959 124.828 54.6287 125.529 54.9007C126.229 55.1727 126.554 55.9361 126.27 56.6025C125.984 57.2688 125.189 57.5991 124.489 57.3291C123.788 57.0571 123.461 56.2917 123.747 55.6253Z" fill="#E6873C"/>
    <path d="M120.071 54.0691C120.357 53.4027 121.152 53.0725 121.853 53.3445C122.554 53.6164 122.878 54.3799 122.594 55.0463C122.308 55.7126 121.514 56.0429 120.813 55.7728C120.112 55.5009 119.785 54.7354 120.071 54.0691Z" fill="#479962"/>
    <path d="M120.353 52.0276C119.653 51.7556 119.328 50.9921 119.612 50.3258C119.898 49.6594 120.693 49.3291 121.393 49.5992C122.094 49.8712 122.421 50.6366 122.135 51.3029C121.849 51.9693 121.054 52.2995 120.353 52.0276Z" fill="#4DAAC9"/>
    <path d="M131.67 40.8509C126.853 38.9859 121.387 41.0432 119.099 45.4492L137.285 52.4916C138.874 47.8155 136.488 42.7159 131.67 40.8509Z" fill="white"/>
    <path d="M126.615 47.4736C125.937 47.2114 125.622 46.4712 125.898 45.8281C126.174 45.1832 126.942 44.8646 127.621 45.1268C128.297 45.3891 128.614 46.1293 128.338 46.7723C128.062 47.4153 127.277 47.7301 126.615 47.4736Z" fill="#4DAAC9"/>
    <path d="M130.326 48.8686C129.649 48.6063 129.333 47.8661 129.609 47.2231C129.884 46.5801 130.653 46.2595 131.331 46.5218C132.007 46.784 132.324 47.5242 132.048 48.1673C131.772 48.8103 131.004 49.1308 130.326 48.8686Z" fill="#479962"/>
    <path d="M135.619 49.5348C135.344 50.1798 134.575 50.4984 133.897 50.2361C133.219 49.9739 132.904 49.2337 133.18 48.5907C133.456 47.9476 134.224 47.6271 134.902 47.8893C135.581 48.1516 135.91 48.8976 135.619 49.5348Z" fill="#E6873C"/>
    <path d="M135.031 45.7837C134.755 46.4287 133.987 46.7473 133.309 46.485C132.632 46.2228 132.316 45.4826 132.592 44.8396C132.867 44.1946 133.636 43.876 134.314 44.1382C134.992 44.4005 135.321 45.1465 135.031 45.7837Z" fill="#479962"/>
    <path d="M130.749 42.6166C131.425 42.8789 131.742 43.6191 131.466 44.2621C131.19 44.9071 130.422 45.2257 129.744 44.9634C129.065 44.7012 128.751 43.961 129.027 43.318C129.302 42.673 130.071 42.3544 130.749 42.6166Z" fill="#4DAAC9"/>
    <path d="M127.181 41.2358C127.858 41.498 128.174 42.2382 127.899 42.8813C127.623 43.5262 126.855 43.8448 126.176 43.5826C125.498 43.3203 125.183 42.5801 125.459 41.9371C125.735 41.2921 126.503 40.9735 127.181 41.2358Z" fill="#AF3172"/>
    <path d="M124.762 45.37C124.487 46.015 123.718 46.3336 123.04 46.0713C122.364 45.8091 122.047 45.0689 122.323 44.4259C122.599 43.7828 123.367 43.4623 124.045 43.7245C124.724 43.9868 125.038 44.727 124.762 45.37Z" fill="#AF3172"/>
    <path d="M139.685 56.4511C139.485 56.4511 139.283 56.4122 139.089 56.3306L116.189 46.7337C115.44 46.4189 115.1 45.5875 115.431 44.8764C115.762 44.1635 116.637 43.841 117.385 44.1557L140.284 53.7527C141.034 54.0674 141.373 54.8988 141.042 55.6099C140.797 56.1363 140.256 56.4511 139.685 56.4511Z" fill="#020202"/>
</svg>
