<svg width="30" height="31" viewBox="0 0 30 31" fill="none" xmlns="http://www.w3.org/2000/svg">
    <g clip-path="url(#clip0_753_20452)">
        <rect x="-3" y="-2.53198" width="35.625" height="35.625" rx="5.9375" fill="#43B7FF"/>
        <path d="M14.4531 15.0791C12.7371 14.9164 11.1699 14.0356 10.1387 12.6544C10.0865 12.5847 10.0017 12.5476 9.91517 12.5566C9.82532 12.5662 9.74812 12.6247 9.71444 12.7085L6.2908 20.1474C5.98159 20.8271 6.04121 21.6177 6.44886 22.2434C6.54828 22.3969 6.55457 22.5927 6.4652 22.7523L5.78538 23.9672C5.68916 24.1382 5.66483 24.3404 5.71775 24.5293C5.77068 24.7182 5.89651 24.8783 6.06755 24.9744C6.11997 25.0031 6.17547 25.0257 6.233 25.0418C6.56086 25.1323 6.90818 24.9877 7.07501 24.6913L7.75378 23.4801C7.84337 23.3206 8.014 23.2237 8.19696 23.2287C8.94361 23.2498 9.64932 22.8881 10.0682 22.2696L14.6346 15.4609C14.6832 15.389 14.6902 15.2966 14.6529 15.2182C14.6156 15.1398 14.5396 15.0869 14.4531 15.0791Z"
              fill="white"/>
        <path d="M11.9441 6.42371L18.8316 10.2857C18.9682 10.3623 19.1331 10.3693 19.2758 10.3047C19.4185 10.2402 19.522 10.1116 19.5546 9.95843C19.9684 7.97849 19.0499 5.95899 17.2857 4.96963C15.5215 3.98026 13.3193 4.24972 11.8457 5.63528C11.7317 5.74309 11.6759 5.89872 11.6953 6.0544C11.7147 6.21008 11.8071 6.34721 11.9441 6.42371Z"
              fill="white"/>
        <path d="M18.3559 11.9449C18.3367 11.7892 18.2445 11.6519 18.1076 11.5753L11.2257 7.71488C11.0889 7.6382 10.9238 7.63118 10.781 7.69598C10.6382 7.76078 10.5348 7.88965 10.5024 8.04309C10.0902 10.0221 11.0086 12.04 12.7718 13.0289C14.5349 14.0178 16.7357 13.7494 18.2095 12.3657C18.3225 12.2568 18.3769 12.1005 18.3559 11.9449Z"
              fill="white"/>
        <path d="M24.8678 17.3745L22.5893 15.7385C22.0744 15.3668 21.3965 15.3096 20.8266 15.5897C20.2567 15.8697 19.8878 16.4414 19.8674 17.0761L19.7753 19.7379C19.7657 20.0068 19.54 20.217 19.2711 20.2076C17.9261 20.1608 16.7977 21.2132 16.7508 22.5582C16.7039 23.9033 17.7563 25.0317 19.1013 25.0786C20.4464 25.1256 21.5748 24.0732 21.6218 22.7282L21.7816 18.0317C21.7847 17.9419 21.8368 17.8612 21.9173 17.8215C21.9978 17.7818 22.0936 17.7895 22.1667 17.8416L23.7231 18.9584C24.0057 19.1692 24.3801 19.211 24.7022 19.0677C25.0243 18.9244 25.2439 18.6183 25.2765 18.2673C25.3092 17.9162 25.1497 17.5749 24.8595 17.3747L24.8678 17.3745Z"
              fill="white"/>
    </g>
    <defs>
        <clipPath id="clip0_753_20452">
            <rect y="0.468018" width="30" height="30" rx="5" fill="white"/>
        </clipPath>
    </defs>
</svg>
