<svg width="30" height="30" viewBox="0 0 30 30" fill="none" xmlns="http://www.w3.org/2000/svg">
    <rect width="30" height="30" rx="5" fill="#EB4791"/>
    <path d="M19.0092 19.7C19.2759 19.7 19.4859 19.7767 19.6392 19.93C19.7992 20.0767 19.8792 20.2733 19.8792 20.52V22H9.95922V21.18C9.95922 21.0133 9.99255 20.84 10.0592 20.66C10.1326 20.4733 10.2459 20.3067 10.3992 20.16L14.7892 15.76C15.1559 15.3867 15.4826 15.03 15.7692 14.69C16.0626 14.35 16.3059 14.0133 16.4992 13.68C16.6926 13.3467 16.8392 13.01 16.9392 12.67C17.0459 12.3233 17.0992 11.96 17.0992 11.58C17.0992 11.2333 17.0492 10.93 16.9492 10.67C16.8492 10.4033 16.7059 10.18 16.5192 10C16.3392 9.82 16.1192 9.68667 15.8592 9.6C15.6059 9.50667 15.3192 9.46 14.9992 9.46C14.7059 9.46 14.4326 9.50333 14.1792 9.59C13.9326 9.67 13.7126 9.78667 13.5192 9.94C13.3259 10.0867 13.1626 10.26 13.0292 10.46C12.8959 10.66 12.7959 10.88 12.7292 11.12C12.6159 11.4267 12.4692 11.63 12.2892 11.73C12.1092 11.83 11.8492 11.8533 11.5092 11.8L10.2092 11.57C10.3092 10.8767 10.5026 10.27 10.7892 9.75C11.0759 9.22333 11.4326 8.78667 11.8592 8.44C12.2926 8.08667 12.7859 7.82333 13.3392 7.65C13.8992 7.47 14.4992 7.38 15.1392 7.38C15.8059 7.38 16.4159 7.48 16.9692 7.68C17.5226 7.87333 17.9959 8.15 18.3892 8.51C18.7826 8.87 19.0892 9.30333 19.3092 9.81C19.5292 10.3167 19.6392 10.88 19.6392 11.5C19.6392 12.0333 19.5592 12.5267 19.3992 12.98C19.2459 13.4333 19.0359 13.8667 18.7692 14.28C18.5092 14.6933 18.2026 15.0933 17.8492 15.48C17.4959 15.8667 17.1259 16.26 16.7392 16.66L13.4792 19.99C13.7926 19.8967 14.1026 19.8267 14.4092 19.78C14.7226 19.7267 15.0192 19.7 15.2992 19.7H19.0092Z"
          fill="white"/>
</svg>
