<svg width="16" height="16" viewBox="0 0 16 16" fill="none" xmlns="http://www.w3.org/2000/svg">
    <path d="M15.6801 5.6509C15.5038 5.10585 15.0338 4.70786 14.4671 4.6239L10.8421 4.1009L9.21611 0.830901C8.96237 0.321779 8.44247 0 7.87361 0C7.30476 0 6.78486 0.321779 6.53111 0.830901L4.91011 4.0999L1.28611 4.6239C0.722265 4.70804 0.253868 5.10256 0.0751141 5.6439C-0.104526 6.1886 0.0439772 6.78805 0.457114 7.1859L3.07511 9.7219L2.45611 13.3069C2.35992 13.8691 2.59087 14.4372 3.05204 14.7727C3.5132 15.1083 4.12478 15.1533 4.63011 14.8889L7.87511 13.1929L11.1231 14.8929C11.6288 15.1577 12.2409 15.1126 12.7023 14.7764C13.1636 14.4403 13.3942 13.8714 13.2971 13.3089L12.6751 9.7229L15.2931 7.1859C15.7036 6.7895 15.8536 6.19453 15.6801 5.6509Z"
          fill="#EB4791"/>
</svg>
