<svg width="23" height="23" viewBox="0 0 23 23" fill="none" xmlns="http://www.w3.org/2000/svg">
    <path d="M1.20214 11.6191L2.12987 12.5957C2.37401 12.8398 2.76464 12.8398 2.95995 12.5957L10.5283 5.02734L10.5283 21.7266C10.5283 22.0195 10.8213 22.3125 11.1142 22.3125L12.4814 22.3125C12.8232 22.3125 13.0674 22.0195 13.0674 21.7266L13.0674 5.02734L20.6846 12.5957C20.8799 12.8398 21.2705 12.8398 21.5146 12.5957L22.4424 11.6191C22.6865 11.4238 22.6865 11.0332 22.4424 10.7891L12.2373 0.583985C11.9932 0.339845 11.6514 0.339845 11.4072 0.583985L1.20214 10.7891C0.957995 11.0332 0.957995 11.4238 1.20214 11.6191Z" fill="#EB4791"/>
</svg>
